<svg width="29" height="28" viewBox="0 0 29 28" fill="none" xmlns="http://www.w3.org/2000/svg">
<path d="M6.96875 23.5C5.86418 23.5 4.96875 22.6046 4.96875 21.5V11.4199C4.96875 10.836 5.22388 10.2813 5.66717 9.90136L13.6513 3.05782C14.0258 2.73683 14.5784 2.73683 14.9529 3.05782L22.937 9.90136C23.3803 10.2813 23.6354 10.836 23.6354 11.4199V21.5C23.6354 22.6046 22.74 23.5 21.6354 23.5H18.6354C17.5308 23.5 16.6354 22.6046 16.6354 21.5V16.3333C16.6354 15.781 16.1877 15.3333 15.6354 15.3333H12.9687C12.4165 15.3333 11.9688 15.781 11.9688 16.3333V21.5C11.9688 22.6046 11.0733 23.5 9.96875 23.5H6.96875Z" fill="#00857D"/>
</svg>
