<svg width="31" height="32" viewBox="0 0 31 32" fill="none" xmlns="http://www.w3.org/2000/svg">
<path d="M11.2191 5.55066H19.8041C23.0746 5.55066 25.7319 8.20792 25.7319 11.4784V20.0634C25.7319 21.6355 25.1074 23.1433 23.9957 24.255C22.884 25.3666 21.3763 25.9912 19.8041 25.9912H11.2191C7.94865 25.9912 5.29138 23.3339 5.29138 20.0634V11.4784C5.29138 9.90627 5.91591 8.39852 7.02758 7.28686C8.13925 6.17519 9.64699 5.55066 11.2191 5.55066ZM11.0147 7.59471C10.0389 7.59471 9.10307 7.98235 8.41307 8.67235C7.72307 9.36235 7.33543 10.2982 7.33543 11.274V20.2678C7.33543 22.3016 8.98089 23.9471 11.0147 23.9471H20.0085C20.9843 23.9471 21.9202 23.5595 22.6102 22.8695C23.3002 22.1795 23.6878 21.2436 23.6878 20.2678V11.274C23.6878 9.24017 22.0424 7.59471 20.0085 7.59471H11.0147ZM20.8773 9.12775C21.2161 9.12775 21.541 9.26234 21.7806 9.50193C22.0202 9.74151 22.1548 10.0665 22.1548 10.4053C22.1548 10.7441 22.0202 11.069 21.7806 11.3086C21.541 11.5482 21.2161 11.6828 20.8773 11.6828C20.5384 11.6828 20.2135 11.5482 19.9739 11.3086C19.7343 11.069 19.5997 10.7441 19.5997 10.4053C19.5997 10.0665 19.7343 9.74151 19.9739 9.50193C20.2135 9.26234 20.5384 9.12775 20.8773 9.12775ZM15.5116 10.6608C16.8669 10.6608 18.1667 11.1992 19.125 12.1575C20.0834 13.1158 20.6218 14.4156 20.6218 15.7709C20.6218 17.1262 20.0834 18.426 19.125 19.3843C18.1667 20.3426 16.8669 20.881 15.5116 20.881C14.1563 20.881 12.8566 20.3426 11.8982 19.3843C10.9399 18.426 10.4015 17.1262 10.4015 15.7709C10.4015 14.4156 10.9399 13.1158 11.8982 12.1575C12.8566 11.1992 14.1563 10.6608 15.5116 10.6608ZM15.5116 12.7048C14.6985 12.7048 13.9186 13.0279 13.3436 13.6029C12.7686 14.1779 12.4456 14.9577 12.4456 15.7709C12.4456 16.5841 12.7686 17.3639 13.3436 17.939C13.9186 18.514 14.6985 18.837 15.5116 18.837C16.3248 18.837 17.1047 18.514 17.6797 17.939C18.2547 17.3639 18.5777 16.5841 18.5777 15.7709C18.5777 14.9577 18.2547 14.1779 17.6797 13.6029C17.1047 13.0279 16.3248 12.7048 15.5116 12.7048Z" fill="#00A79D"/>
</svg>
