<svg width="31" height="32" viewBox="0 0 31 32" fill="none" xmlns="http://www.w3.org/2000/svg">
<path d="M10.4601 8.61648C10.4598 9.1586 10.2442 9.6784 9.8607 10.0615C9.47717 10.4447 8.95715 10.6598 8.41504 10.6595C7.87292 10.6592 7.35312 10.4436 6.96997 10.0601C6.58683 9.67657 6.37174 9.15655 6.37201 8.61444C6.37228 8.07232 6.5879 7.55252 6.97142 7.16938C7.35495 6.78623 7.87497 6.57114 8.41708 6.57141C8.9592 6.57168 9.479 6.7873 9.86214 7.17082C10.2453 7.55435 10.4604 8.07437 10.4601 8.61648ZM10.5214 12.1731H6.43333V24.9689H10.5214V12.1731ZM16.9806 12.1731H12.913V24.9689H16.9397V18.2542C16.9397 14.5136 21.8148 14.1661 21.8148 18.2542V24.9689H25.8518V16.8642C25.8518 10.5583 18.6363 10.7934 16.9397 13.8901L16.9806 12.1731Z" fill="#00A79D"/>
</svg>
