<svg width="33" height="32" viewBox="0 0 33 32" fill="none" xmlns="http://www.w3.org/2000/svg">
<path d="M3.58777 3.71807V28.2806C3.58793 28.3339 3.60383 28.3859 3.63346 28.4302C3.66309 28.4745 3.70514 28.5091 3.75433 28.5296C3.80352 28.55 3.85767 28.5556 3.90998 28.5454C3.9623 28.5352 4.01045 28.5099 4.04839 28.4724L16.8378 15.9999L4.04839 3.52619C4.01045 3.48878 3.9623 3.4634 3.90998 3.45324C3.85767 3.44308 3.80352 3.44859 3.75433 3.46909C3.70514 3.48958 3.66309 3.52414 3.63346 3.56843C3.60383 3.61272 3.58793 3.66478 3.58777 3.71807ZM22.2003 10.8749L6.16402 2.03994L6.15402 2.03432C5.87777 1.88432 5.61527 2.25807 5.84152 2.47557L18.4121 14.4956L22.2003 10.8749ZM5.84277 29.5243C5.61527 29.7418 5.87777 30.1156 6.15527 29.9656L6.16527 29.9599L22.2003 21.1249L18.4121 17.5031L5.84277 29.5243ZM28.674 14.4374L24.1959 11.9712L19.9853 15.9999L24.1959 20.0268L28.674 17.5624C29.8921 16.8893 29.8921 15.1106 28.674 14.4374Z" fill="black"/>
</svg>
