<svg width="29" height="28" viewBox="0 0 29 28" fill="none" xmlns="http://www.w3.org/2000/svg">
<g clip-path="url(#clip0_1_836)">
<g filter="url(#filter0_d_1_836)">
<path d="M22.0373 7.99297C21.5816 7.5178 21.0405 7.14086 20.4451 6.88368C19.8496 6.62651 19.2113 6.49414 18.5667 6.49414C17.9221 6.49414 17.2839 6.62651 16.6884 6.88368C16.0929 7.14086 15.5519 7.5178 15.0962 7.99297L14.1505 8.97867L13.2048 7.99297C12.2843 7.03361 11.036 6.49464 9.73425 6.49464C8.43255 6.49464 7.18416 7.03361 6.26372 7.99297C5.34327 8.95234 4.82617 10.2535 4.82617 11.6103C4.82617 12.967 5.34327 14.2682 6.26372 15.2276L7.20941 16.2133L14.1505 23.4479L21.0916 16.2133L22.0373 15.2276C22.4932 14.7526 22.8548 14.1887 23.1015 13.568C23.3483 12.9474 23.4753 12.2821 23.4753 11.6103C23.4753 10.9384 23.3483 10.2732 23.1015 9.65251C22.8548 9.03184 22.4932 8.46793 22.0373 7.99297Z" stroke="#747787" stroke-width="1.5" stroke-linecap="round" stroke-linejoin="round" shape-rendering="crispEdges"/>
</g>
</g>
<defs>
<filter id="filter0_d_1_836" x="-20.4826" y="-16.582" width="73.7319" height="72.0365" filterUnits="userSpaceOnUse" color-interpolation-filters="sRGB">
<feFlood flood-opacity="0" result="BackgroundImageFix"/>
<feColorMatrix in="SourceAlpha" type="matrix" values="0 0 0 0 0 0 0 0 0 0 0 0 0 0 0 0 0 0 127 0" result="hardAlpha"/>
<feOffset dx="2.23262" dy="4.46523"/>
<feGaussianBlur stdDeviation="13.3957"/>
<feComposite in2="hardAlpha" operator="out"/>
<feColorMatrix type="matrix" values="0 0 0 0 0.0431373 0 0 0 0 0.0470588 0 0 0 0 0.0823529 0 0 0 0.1 0"/>
<feBlend mode="normal" in2="BackgroundImageFix" result="effect1_dropShadow_1_836"/>
<feBlend mode="normal" in="SourceGraphic" in2="effect1_dropShadow_1_836" result="shape"/>
</filter>
<clipPath id="clip0_1_836">
<rect width="22.3262" height="22.3262" fill="white" transform="translate(3.13672 2.83691)"/>
</clipPath>
</defs>
</svg>
