<svg width="31" height="32" viewBox="0 0 31 32" fill="none" xmlns="http://www.w3.org/2000/svg">
<path d="M20.0945 9.45438C20.0945 9.45438 20.6157 9.96539 20.0945 9.45438C19.3959 8.65681 19.0108 7.63255 19.0111 6.57227H15.8531V19.2454C15.8287 19.9312 15.5392 20.5808 15.0454 21.0574C14.5517 21.5339 13.8923 21.8003 13.206 21.8004C11.7548 21.8004 10.5488 20.6149 10.5488 19.1432C10.5488 17.3853 12.2453 16.0669 13.993 16.6085V13.379C10.467 12.9088 7.38049 15.6478 7.38049 19.1432C7.38049 22.5465 10.2013 24.9687 13.1958 24.9687C16.405 24.9687 19.0111 22.3625 19.0111 19.1432V12.7146C20.2917 13.6343 21.8292 14.1277 23.4058 14.125V10.967C23.4058 10.967 21.4844 11.059 20.0945 9.45438Z" fill="#00A79D"/>
</svg>
