<svg width="20" height="22" viewBox="0 0 20 22" fill="none" xmlns="http://www.w3.org/2000/svg">
<path d="M2.96875 21.5C1.86418 21.5 0.96875 20.6046 0.96875 19.5V9.41987C0.96875 8.83602 1.22388 8.28132 1.66717 7.90136L9.65129 1.05782C10.0258 0.73683 10.5784 0.73683 10.9529 1.05782L18.937 7.90136C19.3803 8.28132 19.6354 8.83602 19.6354 9.41987V19.5C19.6354 20.6046 18.74 21.5 17.6354 21.5H14.6354C13.5308 21.5 12.6354 20.6046 12.6354 19.5V14.3333C12.6354 13.781 12.1877 13.3333 11.6354 13.3333H8.96875C8.41646 13.3333 7.96875 13.781 7.96875 14.3333V19.5C7.96875 20.6046 7.07332 21.5 5.96875 21.5H2.96875Z" fill="#00857D"/>
</svg>
